<svg xmlns="http://www.w3.org/2000/svg" version="1.1" xmlns:xlink="http://www.w3.org/1999/xlink" xmlns:svgjs="http://svgjs.dev/svgjs" width="2000" height="1500" viewBox="0 0 2000 1500"><rect width="2000" height="1500" fill="#8d021f"></rect><g transform="matrix(0.75,0,0,0.75,249.090909090909,282.7536437246963)"><svg viewBox="0 0 396 247" data-background-color="#8d021f" preserveAspectRatio="xMidYMid meet" height="1247" width="2000" xmlns="http://www.w3.org/2000/svg" xmlns:xlink="http://www.w3.org/1999/xlink"><g id="tight-bounds" transform="matrix(1,0,0,1,0.2400000000000091,-0.09999999999999432)"><svg viewBox="0 0 395.52 247.2" height="247.2" width="395.52"><g><svg></svg></g><g><svg viewBox="0 0 395.52 247.2" height="247.2" width="395.52"><g transform="matrix(1,0,0,1,75.54432,60.78724229074891)"><svg viewBox="0 0 244.43135999999998 125.62551541850218" height="125.62551541850218" width="244.43135999999998"><g><svg viewBox="0 0 244.43135999999998 125.62551541850218" height="125.62551541850218" width="244.43135999999998"><g><svg viewBox="0 0 244.43135999999998 125.62551541850218" height="125.62551541850218" width="244.43135999999998"><g><svg viewBox="0 0 244.43135999999998 125.62551541850218" height="125.62551541850218" width="244.43135999999998"><g id="textblocktransform"><svg viewBox="0 0 244.43135999999998 125.62551541850218" height="125.62551541850218" width="244.43135999999998" id="textblock"><g><svg viewBox="0 0 244.43135999999998 125.62551541850218" height="125.62551541850218" width="244.43135999999998"><g transform="matrix(1,0,0,1,0,0)"><svg width="244.43135999999998" viewBox="2.799999952316284 -35 68.0999984741211 35" height="125.62551541850218" data-palette-color="#ffffff"><path d="M34.05-35L34.05 0 30.3 0 30.3-28.7 19.05-9.2 17.75-9.25 6.5-28.65 6.5 0 2.8 0 2.8-35 7-35 18.45-15.75 30.3-35 34.05-35ZM70.9-35L70.9 0 67.15 0 67.15-28.7 55.9-9.2 54.6-9.25 43.35-28.65 43.35 0 39.65 0 39.65-35 43.85-35 55.3-15.75 67.15-35 70.9-35Z" opacity="1" transform="matrix(1,0,0,1,0,0)" fill="#ffffff" class="wordmark-text-0" data-fill-palette-color="primary" id="text-0"></path></svg></g></svg></g></svg></g></svg></g></svg></g></svg></g></svg></g><g><path d="M0 123.6c0-68.262 55.338-123.6 123.6-123.6 38.852 0 73.517 17.926 96.176 45.959h-7.401c-21.617-24.697-53.375-40.294-88.775-40.294-65.134 0-117.935 52.802-117.935 117.935 0 65.134 52.802 117.935 117.935 117.935 35.4 0 67.158-15.597 88.775-40.294h7.401c-22.659 28.032-57.324 45.959-96.176 45.959-68.262 0-123.6-55.338-123.6-123.6z" fill="#ffffff" stroke="transparent" data-fill-palette-color="tertiary"></path></g></svg></g><defs></defs></svg><rect width="395.52" height="247.2" fill="none" stroke="none" visibility="hidden"></rect></g></svg></g></svg>